<?xml version="1.0" encoding="UTF-8"?><svg id="Layer_2" xmlns="http://www.w3.org/2000/svg" viewBox="0 0 126.8 125.78"><defs><style>.cls-1{fill:#053742;}</style></defs><g id="Layer_1-2"><g><path class="cls-1" d="M71.79,32.81c-7.8-6.75-8.66-18.54-1.91-26.34,6.75-7.8,18.54-8.66,26.34-1.91,10.35,8.94,18.3,37.9,17.01,39.39-1.21,1.4-30.88-2.01-41.44-11.14Z"/><path class="cls-1" d="M90.89,61.75c3.99-9.51,14.94-13.98,24.45-9.99,9.51,3.99,13.98,14.94,9.99,24.45-5.29,12.61-30.35,29.15-32.17,28.39-1.7-.72-7.67-29.99-2.27-42.85Z"/><path class="cls-1" d="M69.27,88.48c10.29,.78,17.99,9.75,17.22,20.03s-9.75,17.99-20.03,17.22c-13.64-1.03-37.26-19.56-37.11-21.53,.14-1.84,26.02-16.76,39.93-15.71Z"/><path class="cls-1" d="M36.94,77.49c2.37,10.04-3.84,20.1-13.88,22.47-10.04,2.37-20.1-3.84-22.47-13.88-3.15-13.31,7.37-41.43,9.29-41.89,1.8-.43,23.85,19.72,27.06,33.3Z"/><path class="cls-1" d="M38.98,42.17c-8.79,5.4-20.29,2.66-25.69-6.12-5.4-8.79-2.66-20.29,6.12-25.69C31.05,3.19,61.06,4.34,62.09,6.03c.97,1.57-11.23,28.84-23.12,36.15Z"/></g></g></svg>